<svg width="599" height="133" viewBox="0 0 599 133" fill="none" xmlns="http://www.w3.org/2000/svg">
<path d="M25.4 54.2C9.2 54.2 0.200001 44.9 0.200001 28.1C0.200001 12.8 8.3 0.200012 27.2 0.200012C31.4 0.200012 35.9 0.800012 40.1 1.70001L39.5 6.80001C35 5.60001 30.5 5.00001 26.3 5.00001C12.5 5.00001 6.2 15.2 6.2 27.8C6.2 41.9 13.1 49.7 26.9 49.7C31.4 49.7 36.5 48.5 40.1 46.7L40.7 51.5C36.5 53.3 31.4 54.2 25.4 54.2Z" fill="white"/>
<path d="M74.6 54.5C61.1 54.5 53.6 48.2 53.6 35.9V0.799988H59V35.3C59 45.2 65 49.7 75.2 49.7C87.2 49.7 91.4 43.1 91.4 33.8V0.799988H96.8V33.8C96.8 44.6 90.5 54.5 74.6 54.5Z" fill="white"/>
<path d="M138.5 53.6L117.5 29H117.2V53.6H111.8V0.8C114.5 0.8 118.4 0.5 124.4 0.5C136.1 0.5 142.4 5.3 142.4 13.4C142.4 23.3 134.3 28.7 123.8 28.7C125.3 30.2 127.1 32 128.9 34.1L146 53.3H138.5V53.6ZM123.8 5C120.8 5 119 5 117.5 5.3V24.8C119.3 25.1 121.7 25.1 124.1 25.1C131.9 25.1 136.7 20.9 136.7 14.3C136.7 7.7 131.9 5 123.8 5Z" fill="white"/>
<path d="M184.1 53.6L163.1 29H162.8V53.6H157.4V0.8C160.1 0.8 164 0.5 170 0.5C181.7 0.5 188 5.3 188 13.4C188 23.3 179.9 28.7 169.4 28.7C170.9 30.2 172.7 32 174.5 34.1L191.6 53.3H184.1V53.6ZM169.4 5C166.4 5 164.6 5 163.1 5.3V24.8C164.9 25.1 167.3 25.1 169.7 25.1C177.5 25.1 182.3 20.9 182.3 14.3C182.3 7.7 177.2 5 169.4 5Z" fill="white"/>
<path d="M202.7 53.6V0.799988H230V4.99999H208.4V24.2H229.1V28.4H208.4V49.1H230V53.6H202.7V53.6Z" fill="white"/>
<path d="M279.5 53.6L255.5 17.6C253.1 13.7 250.7 10.1 248.9 6.49999C249.2 10.4 249.5 14.9 249.5 22.1V53.6H244.1V0.799988H251L274.7 36.5C277.1 40.1 279.5 44 281.6 47.6C281.3 43.7 281 36.8 281 26.9V1.09999H286.4V53.9H279.5V53.6Z" fill="white"/>
<path d="M321.8 54.2C305.6 54.2 296.6 44.9 296.6 28.1C296.6 12.8 304.7 0.200012 323.6 0.200012C327.8 0.200012 332.3 0.800012 336.5 1.70001L335.9 6.80001C331.4 5.30001 326.9 4.70001 322.7 4.70001C308.9 4.70001 302.6 14.9 302.6 27.5C302.6 41.6 309.5 49.4 323.3 49.4C327.8 49.4 332.9 48.2 336.5 46.4L337.1 51.2C332.9 53.3 327.8 54.2 321.8 54.2Z" fill="white"/>
<path d="M364.4 34.4V53.6H359V34.4L340.7 0.799988H346.7L356.9 20.3C358.7 23.6 360.2 26.6 361.4 29.9C362.9 26.3 364.7 23 366.5 19.4L376.7 0.799988H382.4L364.4 34.4Z" fill="white"/>
<path d="M405.5 53.9C401.9 53.9 395.6 53.9 388.4 53.6V0.8C393.5 0.8 400.7 0.5 407.9 0.5C421.4 0.5 427.1 5.6 427.1 13.4C427.1 18.8 423.8 23.3 418.4 25.4C424.7 26.9 428 31.7 428 37.4C427.7 44.6 422.9 53.9 405.5 53.9ZM405.5 8.3C403.4 8.3 401 8.3 399.2 8.3V23C401 23 402.8 23 403.4 23C410.6 23 415.1 20.6 415.1 15.2C415.1 11.3 413 8.3 405.5 8.3ZM404 29.9C402.8 29.9 400.7 29.9 399.2 29.9V45.2C400.7 45.5 402.8 45.5 405.5 45.5C412.7 45.5 416.3 41.9 416.3 37.1C416 32 411.2 29.9 404 29.9Z" fill="white"/>
<path d="M437.9 53.6V0.799988H449V53.6H437.9V53.6Z" fill="white"/>
<path d="M488.3 53.6L473.3 32H472.7V53.6H461.6V0.8C465.5 0.5 472.4 0.5 479 0.5C491.6 0.5 498.8 5.3 498.8 15.2C498.8 23.9 492.8 29 484.4 30.2C485.6 31.7 487.1 33.8 488.6 35.9L501.8 53.6H488.3V53.6ZM477.2 8.9C475.4 8.9 473.9 8.9 472.4 9.2V24.5C473.9 24.5 475.7 24.8 477.5 24.8C483.2 24.8 487.1 21.5 487.1 16.4C487.1 11.6 483.5 8.9 477.2 8.9Z" fill="white"/>
<path d="M525.5 53.9C518.9 53.9 513.5 53.6 509 53.6V0.8C513.8 0.8 521.9 0.5 528.2 0.5C545.6 0.5 556.7 8 556.7 26.3C556.7 45.5 543.2 53.9 525.5 53.9ZM527 9.5C524.9 9.5 522.2 9.5 520.1 9.8V44.6C521.6 44.6 524.3 44.9 526.7 44.9C537.5 44.9 545.3 39.2 545.3 27.2C545 15.5 539 9.5 527 9.5Z" fill="white"/>
<path d="M542.3 95.3C547.1 94.1 555.2 94.7 560.3 99.2C561.5 100.1 562.7 100.1 564.2 100.4C570.5 101.3 577.7 103.7 578.3 105.5C578.3 105.8 560.6 105.8 558.5 107.3C548.6 115.7 521.6 125.6 500 123.5C489.5 122.6 487.4 121.4 478.7 123.2C470.3 124.7 444.5 133.7 446 132.8C447.2 131.9 492.5 112.4 488.6 104.3C486.8 100.7 476 91.7 458 89.9C442.7 88.4 427.7 86.6 409.7 82.1C396.2 78.8 394.1 74.3 394.1 74.3C394.1 74.3 397.7 77.9 420.8 82.1C446.3 86.9 482.9 84.2 495.2 86.6C506.6 89 513.5 96.8 513.8 97.1C531.2 76.7 570.5 54.2 583.7 35.9C594.8 20.9 592.7 11.6 592.7 11C596.6 16.4 603.5 33.5 591.2 50.3C573.8 75.8 558.8 67.7 542.3 95.3Z" fill="#F8B032"/>
</svg>