<svg width="205" height="122" viewBox="0 0 205 122" fill="none" xmlns="http://www.w3.org/2000/svg">
<path d="M148.2 84.3C153 83.1 161.1 83.7 166.2 88.2C167.4 89.1 168.6 89.1 170.1 89.4C176.4 90.3 183.6 92.7 184.2 94.5C184.2 94.8 166.5 94.8 164.4 96.3C154.5 104.7 127.5 114.6 105.9 112.5C95.4 111.6 93.3 110.4 84.6 112.2C76.2 113.7 50.4 122.7 51.9 121.8C53.1 120.9 98.4 101.4 94.5 93.3C92.7 89.7 81.9 80.7 63.9 78.9C48.6 77.4 33.6 75.6 15.6 71.1C2.09999 67.8 0 63.3 0 63.3C0 63.3 3.60003 66.9 26.7 71.1C52.2 75.9 88.8 73.2 101.1 75.6C112.5 78 119.4 85.8 119.7 86.1C137.1 65.7 176.4 43.2 189.6 24.9C200.7 9.9 198.6 0.6 198.6 0C202.5 5.4 209.4 22.5 197.1 39.3C179.7 64.8 164.7 56.7 148.2 84.3Z" fill="#F8B032"/>
</svg>
